<svg width="142" height="110" viewBox="0 0 142 110" fill="none" xmlns="http://www.w3.org/2000/svg">
<g filter="url(#filter0_d)">
<path d="M138.367 81.946C135.696 85.3003 129.157 87.6915 129.157 87.6915L80.5013 105.091V92.2605L116.306 79.5587C120.372 78.1078 120.997 76.0614 117.692 74.9864C114.396 73.9064 108.425 74.2141 104.359 75.6687L80.5013 84.0339V70.7201L81.8749 70.2554C81.8749 70.2554 88.7682 67.8288 98.4624 66.7603C108.157 65.6984 120.029 66.9054 129.348 70.4212C139.849 73.7254 141.035 78.5955 138.367 81.946ZM85.1312 60.0969V27.2891C85.1312 23.4357 84.4183 19.8883 80.7873 18.883C78.0072 17.9962 76.2791 20.5668 76.2791 24.4169V106.583L54.0191 99.5506V1.58276C63.4832 3.33194 77.273 7.4657 84.6863 9.95392C103.538 16.3965 109.929 24.4142 109.929 42.483C109.929 60.0914 99.0098 66.7669 85.1312 60.0969ZM13.1735 90.9204C2.39387 87.8966 0.598916 81.5953 5.51313 77.9682C10.0542 74.6188 17.7781 72.0984 17.7781 72.0984L49.695 60.8032V73.6823L26.7271 81.8604C22.6699 83.3123 22.0469 85.3642 25.342 86.4408C28.6432 87.5159 34.6154 87.2066 38.6787 85.7558L49.695 81.7747V93.2968C48.9964 93.4233 48.2173 93.5439 47.4974 93.6644C36.4778 95.4588 24.7399 94.71 13.1735 90.9204Z" fill="white"/>
</g>
<defs>
<filter id="filter0_d" x="0.916016" y="0.582764" width="140.667" height="109" filterUnits="userSpaceOnUse" color-interpolation-filters="sRGB">
<feFlood flood-opacity="0" result="BackgroundImageFix"/>
<feColorMatrix in="SourceAlpha" type="matrix" values="0 0 0 0 0 0 0 0 0 0 0 0 0 0 0 0 0 0 127 0"/>
<feOffset dy="1"/>
<feGaussianBlur stdDeviation="1"/>
<feColorMatrix type="matrix" values="0 0 0 0 0 0 0 0 0 0 0 0 0 0 0 0 0 0 0.25 0"/>
<feBlend mode="normal" in2="BackgroundImageFix" result="effect1_dropShadow"/>
<feBlend mode="normal" in="SourceGraphic" in2="effect1_dropShadow" result="shape"/>
</filter>
</defs>
</svg>
